<?xml version="1.0" encoding="iso-8859-1"?>
<!-- Generator: Adobe Illustrator 19.0.0, SVG Export Plug-In . SVG Version: 6.00 Build 0)  -->
<svg version="1.1" id="Layer_1" xmlns="http://www.w3.org/2000/svg" xmlns:xlink="http://www.w3.org/1999/xlink" x="0px" y="0px"
	 viewBox="0 0 512 512" style="enable-background:new 0 0 512 512;" xml:space="preserve">
<g transform="translate(1 1)">
	<path style="fill:#E2E3E5;" d="M502.322,502.322c-47.729,0-86.78-39.051-86.78-86.78c0-5.207,3.471-8.678,8.678-8.678
		s8.678,3.471,8.678,8.678c0,38.183,31.241,69.424,69.424,69.424c5.207,0,8.678,3.471,8.678,8.678S507.529,502.322,502.322,502.322z
		"/>
	<path style="fill:#CCCCCC;" d="M493.644,250.661c0,134.508-108.475,242.983-242.983,242.983S7.678,385.169,7.678,250.661
		S116.153,7.678,250.661,7.678S493.644,116.153,493.644,250.661"/>
	<path style="fill:#E2E3E5;" d="M458.932,250.661c0,115.417-92.854,208.271-208.271,208.271S42.39,366.078,42.39,250.661
		S135.244,42.39,250.661,42.39S458.932,135.244,458.932,250.661"/>
	<path style="fill:#EEEEEE;" d="M68.424,250.661c0-111.078,85.912-201.329,195.254-207.403c-4.339-0.868-8.678-0.868-13.017-0.868
		c-115.417,0-208.271,92.854-208.271,208.271s92.854,208.271,208.271,208.271c4.339,0,8.678,0,13.017-0.868
		C154.336,451.99,68.424,361.739,68.424,250.661"/>
	<g>
		<path style="fill:#F0F0F0;" d="M302.729,146.525c0,28.637-23.431,52.068-52.068,52.068c-28.637,0-52.068-23.431-52.068-52.068
			s23.431-52.068,52.068-52.068C279.298,94.458,302.729,117.888,302.729,146.525"/>
		<path style="fill:#F0F0F0;" d="M302.729,354.797c0,28.637-23.431,52.068-52.068,52.068c-28.637,0-52.068-23.431-52.068-52.068
			c0-28.637,23.431-52.068,52.068-52.068C279.298,302.729,302.729,326.159,302.729,354.797"/>
		<path style="fill:#F0F0F0;" d="M354.797,302.729c-28.637,0-52.068-23.431-52.068-52.068c0-28.637,23.431-52.068,52.068-52.068
			c28.637,0,52.068,23.431,52.068,52.068C406.864,279.298,383.434,302.729,354.797,302.729"/>
		<path style="fill:#F0F0F0;" d="M146.525,302.729c-28.637,0-52.068-23.431-52.068-52.068c0-28.637,23.431-52.068,52.068-52.068
			s52.068,23.431,52.068,52.068C198.593,279.298,175.163,302.729,146.525,302.729"/>
	</g>
	<g>
		<path style="fill:#E0E0E0;" d="M250.661,146.525c-18.224,0-35.58,4.339-50.332,13.017c6.075,22.563,26.034,39.051,50.332,39.051
			s44.258-16.488,50.332-39.051C286.241,150.864,268.885,146.525,250.661,146.525"/>
		<path style="fill:#E0E0E0;" d="M250.661,354.797c18.224,0,35.58-4.339,50.332-13.017c-6.075-22.563-26.034-39.051-50.332-39.051
			s-44.258,16.488-50.332,39.051C215.081,350.458,232.437,354.797,250.661,354.797"/>
		<path style="fill:#E0E0E0;" d="M354.797,250.661c0-18.224-4.339-35.58-13.017-50.332c-22.563,6.075-39.051,26.034-39.051,50.332
			s16.488,44.258,39.051,50.332C350.458,286.241,354.797,268.885,354.797,250.661"/>
		<path style="fill:#E0E0E0;" d="M159.542,200.329c-8.678,14.753-13.017,32.108-13.017,50.332s4.339,35.58,13.017,50.332
			c22.563-6.075,39.051-26.034,39.051-50.332S182.105,206.403,159.542,200.329"/>
	</g>
	<g>
		<path style="fill:#B6B6B6;" d="M250.661,502.322C111.814,502.322-1,389.508-1,250.661S111.814-1,250.661-1
			s251.661,112.814,251.661,251.661S389.508,502.322,250.661,502.322z M250.661,16.356c-129.302,0-234.305,105.003-234.305,234.305
			s105.003,234.305,234.305,234.305s234.305-105.003,234.305-234.305S379.963,16.356,250.661,16.356z"/>
		<path style="fill:#B6B6B6;" d="M502.322,511c-47.729,0-86.78-39.051-86.78-86.78c0-5.207,3.471-8.678,8.678-8.678
			s8.678,3.471,8.678,8.678c0,38.183,31.241,69.424,69.424,69.424c5.207,0,8.678,3.471,8.678,8.678
			C511,507.529,507.529,511,502.322,511z"/>
		<path style="fill:#B6B6B6;" d="M250.661,467.61c-119.756,0-216.949-97.193-216.949-216.949S130.905,33.712,250.661,33.712
			S467.61,130.905,467.61,250.661S370.417,467.61,250.661,467.61z M250.661,51.068c-110.21,0-199.593,89.383-199.593,199.593
			s89.383,199.593,199.593,199.593s199.593-89.383,199.593-199.593S360.871,51.068,250.661,51.068z"/>
		<path style="fill:#B6B6B6;" d="M250.661,207.271c-33.844,0-60.746-26.902-60.746-60.746s26.902-60.746,60.746-60.746
			s60.746,26.902,60.746,60.746S284.505,207.271,250.661,207.271z M250.661,103.136c-24.298,0-43.39,19.092-43.39,43.39
			s19.092,43.39,43.39,43.39s43.39-19.092,43.39-43.39S274.959,103.136,250.661,103.136z"/>
		<path style="fill:#B6B6B6;" d="M250.661,415.542c-33.844,0-60.746-26.902-60.746-60.746s26.902-60.746,60.746-60.746
			s60.746,26.902,60.746,60.746S284.505,415.542,250.661,415.542z M250.661,311.407c-24.298,0-43.39,19.092-43.39,43.39
			c0,24.298,19.092,43.39,43.39,43.39s43.39-19.092,43.39-43.39C294.051,330.498,274.959,311.407,250.661,311.407z"/>
		<path style="fill:#B6B6B6;" d="M354.797,311.407c-33.844,0-60.746-26.902-60.746-60.746s26.902-60.746,60.746-60.746
			s60.746,26.902,60.746,60.746S388.641,311.407,354.797,311.407z M354.797,207.271c-24.298,0-43.39,19.092-43.39,43.39
			s19.092,43.39,43.39,43.39c24.298,0,43.39-19.092,43.39-43.39S379.095,207.271,354.797,207.271z"/>
		<path style="fill:#B6B6B6;" d="M146.525,311.407c-33.844,0-60.746-26.902-60.746-60.746s26.902-60.746,60.746-60.746
			s60.746,26.902,60.746,60.746S180.369,311.407,146.525,311.407z M146.525,207.271c-24.298,0-43.39,19.092-43.39,43.39
			s19.092,43.39,43.39,43.39s43.39-19.092,43.39-43.39S170.824,207.271,146.525,207.271z"/>
		<path style="fill:#B6B6B6;" d="M250.661,207.271c-27.769,0-52.068-19.092-59.01-45.993c-0.868-3.471,0.868-7.81,4.339-9.546
			c32.976-18.224,75.498-18.224,109.342,0c3.471,1.736,5.207,6.075,4.339,9.546C302.729,188.18,278.431,207.271,250.661,207.271z
			 M210.742,163.881c6.942,15.62,22.563,26.034,39.919,26.034s32.976-10.414,39.919-26.034
			C265.414,152.6,235.908,152.6,210.742,163.881z"/>
		<path style="fill:#B6B6B6;" d="M250.661,363.475c-19.092,0-38.183-5.207-54.671-13.885c-3.471-1.736-5.207-6.075-4.339-9.546
			c6.942-26.902,31.241-45.993,59.01-45.993s52.068,19.092,59.01,45.993c0.868,3.471-0.868,7.81-4.339,9.546
			C288.844,358.268,269.753,363.475,250.661,363.475z M210.742,337.441c25.166,11.281,54.671,11.281,79.837,0
			c-6.942-15.62-22.563-26.034-39.919-26.034S217.685,321.82,210.742,337.441z"/>
		<path style="fill:#B6B6B6;" d="M341.78,309.671c-0.868,0-1.736,0-1.736,0c-26.902-6.942-45.993-31.241-45.993-59.01
			s19.092-52.068,45.993-59.01c3.471-0.868,7.81,0.868,9.546,4.339c9.546,16.488,13.885,35.58,13.885,54.671
			c0,19.092-5.207,38.183-13.885,54.671C347.854,307.936,345.251,309.671,341.78,309.671z M337.441,210.742
			c-15.62,6.942-26.034,22.563-26.034,39.919s10.414,32.976,26.034,39.919c6.075-12.149,8.678-26.034,8.678-39.919
			C346.119,236.776,343.515,223.759,337.441,210.742z"/>
		<path style="fill:#B6B6B6;" d="M159.542,309.671c-3.471,0-6.075-1.736-7.81-4.339c-8.678-16.488-13.885-35.58-13.885-54.671
			c0-19.092,5.207-38.183,13.885-54.671c1.736-3.471,6.075-5.207,9.546-4.339c26.902,6.942,45.993,31.241,45.993,59.01
			s-19.092,52.068-45.993,59.01C161.278,309.671,160.41,309.671,159.542,309.671z M163.881,210.742
			c-6.075,12.149-8.678,26.034-8.678,39.919c0,13.885,2.603,26.902,8.678,39.919c15.62-6.942,26.034-22.563,26.034-39.919
			C189.915,233.305,179.502,217.685,163.881,210.742z"/>
	</g>
</g>
<g>
</g>
<g>
</g>
<g>
</g>
<g>
</g>
<g>
</g>
<g>
</g>
<g>
</g>
<g>
</g>
<g>
</g>
<g>
</g>
<g>
</g>
<g>
</g>
<g>
</g>
<g>
</g>
<g>
</g>
</svg>
